<svg width="234" height="136" viewBox="0 0 234 136" fill="none" xmlns="http://www.w3.org/2000/svg">
<g id="Frame" clip-path="url(#clip0_82_1184)">
<g id="Group">
<path id="Vector" d="M54.9119 51.5557C54.8844 53.1849 57.1336 55.753 57.9839 55.9463C57.7644 55.1179 55.5427 52.1079 54.9119 51.5557Z" fill="white"/>
<path id="Vector_2" d="M60.2056 23.0302C60.0684 23.7482 60.0959 24.4109 60.2604 24.8251C60.3976 23.334 61.1107 22.0085 61.4124 20.5725C61.4673 21.0144 61.3576 21.4562 61.4124 22.0361C61.5221 21.5667 61.6867 21.2629 61.8787 20.9315C62.1804 20.3516 62.3176 19.7441 62.4547 19.109C62.4821 18.9157 62.5096 18.6948 62.2901 18.5843C62.0707 18.5015 61.8513 18.5015 61.6319 18.6948C61.2479 19.0261 61.0284 19.4404 60.9187 19.9098C60.6719 20.9591 60.425 21.9809 60.2056 23.0302Z" fill="white"/>
<path id="Vector_3" d="M60.4799 47.4136C60.0136 46.8061 59.7941 46.0605 59.5199 45.3701C59.4924 45.2873 59.5199 45.2045 59.5199 45.0664C59.8216 45.3978 59.8764 45.9776 60.4799 45.95C60.5073 45.7843 60.233 45.7291 60.3153 45.5082C60.7541 45.6463 60.9187 46.2262 61.4399 46.2262C61.0284 45.6187 60.5621 45.0664 60.0136 44.5141C60.9736 43.9894 61.4399 44.7902 62.1256 45.1216C61.7416 44.4589 61.1107 44.1275 60.6719 43.6028C60.7267 43.4371 60.8364 43.4372 61.001 43.52C61.3301 43.6857 61.6593 43.879 61.9061 44.1551C62.0981 44.3484 62.2901 44.4036 62.537 44.2932C62.9484 44.1275 63.3873 43.9894 63.7987 43.7133C62.729 43.3543 61.7416 42.9953 60.809 42.305C61.3301 42.0012 61.7416 41.946 62.2079 42.1393C62.7564 42.3602 63.2501 42.7192 63.7438 43.0505C63.8536 43.1334 63.9907 43.2162 64.1827 43.3267C63.9358 42.8296 63.5244 42.6087 63.1953 42.305C62.729 41.9184 62.1804 41.6422 61.7416 41.2004C61.6319 41.0899 61.5496 41.0071 61.4673 40.8966C61.385 40.7862 61.2479 40.7033 61.3027 40.5653C61.385 40.4272 61.5496 40.3996 61.6593 40.4272C62.2353 40.4824 62.7016 40.2615 63.1404 39.9578C63.4696 39.7092 63.8536 39.5159 64.1553 39.2398C64.0456 38.9637 63.881 38.9637 63.6616 39.0189C63.0033 39.1846 62.345 39.3226 61.6593 39.3503C61.4124 39.3503 61.1381 39.3503 60.8913 39.157C62.2079 37.8867 63.4147 36.506 64.8136 35.3462C64.7313 35.0977 64.5667 35.1529 64.4296 35.1529C63.6341 35.1529 62.8661 35.1529 62.0707 35.2081C61.8787 35.2357 61.6044 35.3186 61.4947 35.0424C61.4124 34.8768 61.7141 34.5454 62.0159 34.4626C62.5096 34.3245 63.0307 34.4073 63.5518 34.4073C63.7987 34.4073 64.0456 34.4902 64.3198 34.4073C64.2101 34.1588 63.9633 34.0483 63.7987 33.8827C63.3324 33.4132 62.921 32.8885 62.3998 32.5019C62.0981 32.281 62.1256 32.1706 62.4547 31.9773C62.7564 31.8116 63.0581 31.6459 63.3598 31.4802C63.497 31.3974 63.6616 31.3422 63.7438 31.1765C63.6616 30.9832 63.497 31.0108 63.3598 31.0108C62.8387 31.0108 62.3176 31.0108 61.769 31.0384C61.193 31.066 61.193 31.0384 61.193 30.4585C61.1656 29.492 61.577 28.6912 61.9884 27.8628C62.0707 27.7247 62.1256 27.5866 62.2079 27.4762C62.2627 27.3657 62.3176 27.2553 62.2079 27.1448C62.0981 27.0343 61.961 27.1172 61.8787 27.1448C61.6319 27.2553 61.4673 27.4209 61.3027 27.7247C61.193 27.4486 61.3027 27.2276 61.3576 27.0343C61.7141 25.3223 62.3176 23.693 62.8387 22.0362C63.113 21.1525 63.1404 20.2965 62.6741 19.4128C62.5918 19.7166 62.5096 19.9927 62.4547 20.2413C62.3724 20.5174 62.345 20.7935 62.2627 21.0697C62.2353 21.1801 62.2627 21.2354 62.345 21.263C62.7016 21.4287 62.5644 21.6496 62.4821 21.8981C61.9061 23.2236 61.4124 24.5767 61.0833 26.0126C60.7816 27.3105 60.6719 28.636 60.5621 29.9614C60.5073 30.4033 60.4524 30.8451 60.425 31.2869C60.3427 32.143 60.617 32.9714 60.7267 33.7998C60.809 34.3521 60.8913 34.8491 61.2204 35.3186C61.3576 35.5119 61.4673 35.7328 61.6593 35.8433C61.9336 36.0366 61.9061 36.2299 61.769 36.506C61.4124 37.0583 61.0833 37.6106 60.7541 38.1905C60.617 38.4114 60.5073 38.6323 60.425 38.8808C60.2879 39.295 60.3427 39.4331 60.7541 39.5712C61.001 39.654 61.2753 39.654 61.4947 39.8749C61.4124 40.1234 61.1656 40.1511 61.001 40.2891C60.5896 40.5929 60.5621 40.7586 60.8913 41.1176C61.2479 41.5042 61.2753 41.5318 60.8364 41.7803C60.3701 42.0841 60.3427 42.4707 60.5073 42.9125C60.617 43.1886 60.5347 43.2991 60.2879 43.4371C60.041 43.5476 59.8216 43.7409 59.6296 43.9342C59.4101 44.1275 59.4376 44.3208 59.6296 44.5141C59.7393 44.6246 59.8764 44.735 59.9313 44.9007C59.7119 44.9559 59.6296 44.735 59.4376 44.6246C58.9439 45.2321 58.2856 45.7015 58.3679 46.6404C58.697 48.8219 59.3279 49.816 60.0959 50.0922L61.9061 48.4905C61.193 48.4353 60.8364 47.9106 60.4799 47.4136Z" fill="white"/>
<path id="Vector_4" d="M57.4079 24.328C57.353 24.825 57.3256 25.3221 57.2707 25.7915C58.0113 25.5706 58.313 25.0735 58.4776 24.3556C58.8067 22.9196 59.1084 21.4561 59.7393 20.103C59.8764 19.7992 59.9861 19.4955 60.233 19.1641C60.0959 20.0478 59.7119 20.821 60.0136 21.677C60.3976 20.3515 60.809 19.0537 61.193 17.7282C61.2479 17.5901 61.385 17.314 61.1656 17.2311C60.9736 17.1483 60.9187 17.452 60.8364 17.5901C60.617 18.0596 60.2879 18.3357 59.7393 18.2805C59.5473 18.2528 59.4101 18.3909 59.3004 18.5842C58.9987 19.1365 58.8067 19.744 58.5873 20.3239C58.2581 21.2076 57.6821 22.0084 57.5724 23.0025C57.5176 23.4443 57.4627 23.8861 57.4079 24.328Z" fill="white"/>
<path id="Vector_5" d="M56.9964 16.0714C57.3804 15.6848 57.7644 15.2982 58.1484 14.9116C57.7919 14.5802 57.3804 14.3593 57.0239 13.8899C57.0513 14.2489 57.0513 14.525 57.0787 14.8012C57.1062 15.0497 57.0787 15.2154 56.8593 15.3811C56.4204 15.74 56.0364 16.1543 55.9267 16.7618C56.4479 16.4856 56.5576 15.9057 56.9416 15.5191C57.1062 15.7124 56.9964 15.9057 56.9964 16.0714Z" fill="white"/>
<path id="Vector_6" d="M57.2433 19.2747C56.7222 20.4897 56.1462 21.6219 55.3233 22.6712C55.2959 22.5331 55.3782 22.4779 55.4056 22.3951C55.7896 21.6219 56.1736 20.821 56.5302 20.0479C56.585 19.9374 56.7222 19.7717 56.5027 19.6889C56.3382 19.606 56.2559 19.7441 56.1736 19.8822C55.5976 20.7934 55.049 21.7323 54.473 22.6436C54.3085 22.8921 54.1987 23.1683 54.1439 23.4444C54.0067 24.0519 53.897 24.687 53.7599 25.2945C53.6227 25.9021 53.4856 26.4819 53.3759 27.0618C54.9119 24.6318 56.393 22.2294 58.1759 19.9926C57.8467 19.7441 57.545 19.5232 57.2433 19.2747Z" fill="white"/>
<path id="Vector_7" d="M197.019 71.2169L196.196 71.7139C197.019 73.1222 196.306 74.282 194.633 74.8343C188.818 76.7397 181.165 77.9547 175.241 78.3413C168.877 78.7555 158.811 79.7496 152.475 78.7003C151.35 82.5939 148.69 84.9411 141.559 84.444C134.564 83.9746 132.836 79.8601 131.328 77.8443C126.034 77.3196 90.4592 73.3984 85.2204 72.211C84.6444 74.2544 83.3827 75.3314 81.3804 75.856C79.5427 76.3531 77.5952 76.3255 75.7027 76.1598C75.1541 76.1046 74.633 76.0493 74.1118 75.856C72.0547 75.0828 70.9027 72.4595 70.2993 70.5265C70.1347 70.0571 69.8878 69.8085 69.4216 69.6152C68.1324 69.1458 66.8433 68.5659 65.6638 67.8755C65.6364 67.9584 65.6364 68.0136 65.609 68.0965C65.4444 68.5935 65.6639 69.2286 65.7736 69.8085C66.2124 72.2938 66.4318 74.8067 66.6238 77.3472C66.7884 79.1697 66.953 80.9923 66.9256 82.8424C66.9256 83.5052 66.8433 84.1403 66.6238 84.7478C66.377 85.4934 66.4318 86.2666 66.4318 87.0398C66.4318 88.4481 66.5964 89.8288 66.8981 91.2095C67.0353 91.7894 67.1176 92.3417 67.0078 92.9492C66.2399 93.0044 65.4718 93.0597 64.7313 93.1149C64.6216 93.1149 64.5119 93.1149 64.4296 93.0873C64.2924 93.0044 64.2376 92.8387 64.1279 92.7283C63.9633 92.5902 63.7439 92.6178 63.5519 92.6731C63.3599 92.7559 63.1953 92.8664 63.0307 92.9492C62.729 93.0873 62.4273 93.0873 62.0981 93.0873C59.4376 93.1425 56.8044 92.9768 54.1713 92.5626C54.089 92.5626 54.0067 92.535 53.9519 92.4798C53.897 92.4245 53.897 92.3417 53.897 92.2865C53.8696 92.0103 53.8422 91.7342 53.9519 91.5133C54.1439 91.0714 54.7199 90.9334 55.1862 90.8229C56.3107 90.602 57.4079 90.2706 58.4502 89.8288C58.8067 89.6907 59.1633 89.525 59.5473 89.4698C59.9313 89.4146 60.2056 89.525 60.5621 89.3317C60.5621 89.0556 60.3153 89.1108 60.1781 89.028C59.9039 88.8899 60.0959 88.6414 60.041 88.4757C59.9861 88.31 60.2056 88.2272 60.3976 88.1996C60.9461 88.1443 61.4673 88.0615 62.0159 87.8958C61.6319 87.9234 61.2479 87.8958 60.8639 87.951C60.5073 88.0063 60.1233 88.1996 60.041 87.6473C59.9587 87.095 59.4924 86.4323 60.3427 86.1009C61.0284 85.8247 61.7416 85.6591 62.4547 85.4658C62.6741 85.4105 62.8661 85.3553 63.0856 85.1068C62.0159 84.9135 61.193 85.4934 60.2604 85.6314C60.6719 84.6926 61.5496 84.2231 62.0433 83.2014C60.9187 83.6985 60.1782 84.5269 59.0536 85.162C59.7667 80.937 61.1107 76.9882 61.193 72.8185C60.7816 74.8895 60.0684 76.8778 59.6844 78.9488C58.0936 75.2485 56.6399 69.3391 56.6399 66.4672C57.3804 68.5383 58.3679 70.4713 59.273 72.4595C58.889 70.1675 57.7644 68.0965 57.1336 65.8873C56.5027 63.6506 54.3633 53.5438 54.1713 51.6384C54.0616 50.5615 53.8422 49.5674 52.7999 48.7389C53.8696 58.901 55.1862 65.556 55.1862 65.556H50.1942C50.5782 61.0825 51.209 34.6557 51.2913 34.0482C51.5656 32.1152 51.8125 30.1546 52.0867 28.2216C52.2787 26.8685 52.4707 25.5431 52.7725 24.19C53.0467 22.8921 53.4582 21.5942 54.089 20.4068C54.1165 20.5725 53.9519 20.7382 54.0342 20.9315C54.473 19.9926 54.9667 19.0814 55.4879 18.1701C55.6524 17.8663 55.8444 17.5902 56.2559 17.5626C56.201 17.3417 56.3107 17.1484 56.3382 16.9274C56.1736 16.8722 56.1187 16.9827 56.0364 17.0655C55.7347 17.3417 55.5427 17.7006 55.3233 18.0596C54.9119 18.6948 54.6102 19.4127 54.2536 20.1031C54.1165 19.6336 53.9519 19.1366 53.8147 18.6671C53.6776 18.1149 53.2936 17.8111 52.8273 17.535C52.7176 17.4797 52.6079 17.4245 52.4707 17.3417C53.897 16.0714 55.3233 14.8288 56.7496 13.5309C55.9816 12.9234 55.9542 12.0397 55.817 11.1837C55.7896 10.9904 55.7622 10.8799 55.5427 10.8523C55.3233 10.8247 55.2959 10.5762 55.241 10.4105C55.0764 9.85822 54.857 9.33355 54.8022 8.75366C53.9793 8.56036 53.1016 8.58797 52.3336 8.09092C52.4707 7.89762 52.6627 7.87 52.8273 7.81478C53.5679 7.53863 54.281 7.23488 54.9667 6.84828C55.1313 6.76544 55.1313 6.65498 55.1039 6.54453C55.1039 6.32361 55.1587 6.18554 55.3507 6.13031C55.1862 4.69438 55.1862 3.28606 55.6799 1.90535C55.8719 1.32545 56.1462 1.21499 56.7222 1.43591C56.7496 1.43591 56.8044 1.46352 56.8319 1.46352C57.5999 2.0158 58.3404 1.82251 59.081 1.35306C59.4376 1.13215 59.8216 0.994081 60.2604 0.938853C60.9736 0.85601 61.4399 1.13215 61.6867 1.79489C62.0159 2.70616 62.2079 3.64504 62.3999 4.58392C62.4821 4.97052 62.7839 5.24666 62.7839 5.66087C62.7839 5.74371 62.921 5.74371 63.0307 5.77133C63.689 5.85417 64.3747 5.96463 65.033 6.04747C65.1153 6.04747 65.1701 6.1027 65.225 6.1027C65.3073 6.1027 65.3896 6.13031 65.417 6.21316C65.4444 6.32361 65.3347 6.35123 65.2524 6.40645C64.5393 6.82067 63.7713 7.04158 63.0033 7.20726C62.6467 7.29011 62.4821 7.42818 62.537 7.78716C62.6741 7.73193 62.8113 7.56625 62.9759 7.6767C63.113 7.78716 63.1404 7.95285 63.113 8.11853C63.0581 8.61559 62.9759 9.08503 62.8113 9.55447C62.7016 9.88584 62.537 10.1068 62.1256 10.0791C62.0981 10.4381 62.0707 10.7695 62.153 11.1561C62.5644 11.018 62.7839 11.1285 62.7839 11.5979C62.7839 11.6531 62.8387 11.7636 62.8936 11.7636C63.4421 11.8464 63.2776 12.3987 63.4696 12.7025C63.689 13.0338 63.8536 13.3928 63.7164 13.8347C63.6616 14.028 63.8261 14.1108 63.9084 14.1936C64.5667 14.884 65.3347 15.4915 65.993 16.1819C67.3644 17.6178 68.1324 19.3299 68.3244 21.2905C68.5987 23.9691 68.5164 26.6752 68.3793 29.3538C68.297 31.0383 68.0776 32.7227 67.721 34.3796C67.5838 35.0423 67.2273 35.6222 66.8981 36.2021C66.8158 36.3402 66.7884 36.4506 66.7884 36.5887C66.761 39.9576 67.1176 43.9065 67.6113 47.9657C67.7484 47.9105 67.8856 47.8553 68.0501 47.8277C68.489 47.6896 68.9004 47.4687 69.2844 47.1926C69.9976 46.6679 70.7381 46.1156 71.5884 45.8395C73.673 45.0939 75.401 43.7684 77.2113 42.581C79.7621 40.8965 82.3678 39.3501 85.0009 37.8314C87.3049 36.5059 89.7187 35.6498 92.3518 35.2356C100.388 33.993 108.48 33.1646 116.626 33.2198C125.074 33.275 133.44 34.1034 141.668 36.0641C142.025 36.1469 142.381 36.285 142.711 36.4506C148.004 39.2397 153.298 42.0011 158.564 44.8177C159.497 45.3148 160.484 45.5357 161.526 45.6462C169.289 46.3917 177.051 47.2202 184.704 48.9046C186.541 49.3188 188.324 49.8435 190.08 50.4786C191.067 50.8376 191.78 51.4451 192.411 52.2459C193.673 53.8752 194.221 55.8082 194.523 57.824C194.66 58.7077 194.742 59.5913 194.715 60.5026C194.715 61.0549 194.852 61.4415 195.291 61.8004C195.702 62.1318 196.059 62.5184 196.416 62.8774C196.141 64.2581 195.648 65.5284 195.51 66.9091C195.456 67.7099 195.456 68.4554 195.785 69.1734C195.84 69.2839 195.894 69.4219 195.867 69.5324C195.648 70.3608 196.004 70.9683 196.416 71.6587L197.184 71.134C196.8 70.4713 196.662 70.1675 196.772 69.8085C196.854 69.4772 196.8 69.1182 196.635 68.7868C196.388 68.2898 196.388 67.7375 196.443 67.0195C196.498 66.2739 196.717 65.556 196.909 64.7828C197.046 64.2305 197.211 63.6782 197.321 63.0983C197.376 62.7945 197.293 62.4632 197.046 62.2423L196.772 61.9661C196.47 61.6624 196.169 61.3586 195.84 61.1101C195.675 60.972 195.62 60.8616 195.62 60.5854C195.648 59.7018 195.593 58.7905 195.428 57.7412C195.072 55.2007 194.331 53.2953 193.124 51.7213C192.356 50.6996 191.451 50.0368 190.381 49.6226C188.598 48.9599 186.761 48.4352 184.868 48.021C177.188 46.3365 169.481 45.5081 161.609 44.7349C160.566 44.6244 159.744 44.4035 159.003 44.0169C154.477 41.5869 149.952 39.2121 145.398 36.8096L143.149 35.6222C142.765 35.4013 142.327 35.2632 141.888 35.1528C133.988 33.275 125.705 32.3085 116.626 32.2809C109.22 32.2257 101.458 32.8884 92.2146 34.3244C89.4992 34.7386 87.0032 35.6222 84.5621 37.0305C81.6272 38.715 79.0764 40.2614 76.7175 41.8078C76.3335 42.0563 75.977 42.3049 75.6204 42.5534C74.1941 43.5199 72.8775 44.4311 71.3141 44.9834C70.3816 45.3148 69.5861 45.8671 68.7633 46.4746C68.6536 46.5574 68.5713 46.6127 68.4616 46.6955C68.105 43.5751 67.7484 39.8748 67.8033 36.6992L67.9678 36.3954C68.2421 35.8984 68.5438 35.3185 68.7084 34.6557C69.065 33.0265 69.2844 31.2868 69.3941 29.4919C69.5313 27.0618 69.6136 24.1624 69.3393 21.2629C69.1198 19.0537 68.2696 17.1484 66.761 15.5744C66.4044 15.2154 66.0478 14.884 65.6638 14.525C65.3621 14.2489 65.0604 13.9727 64.7861 13.6966C64.841 12.9786 64.4844 12.4263 64.3473 12.2054C64.265 11.7084 64.0456 11.3218 63.7439 11.1009C63.6616 10.8799 63.5519 10.6866 63.4421 10.5762C63.5793 10.4105 63.7164 10.1896 63.7987 9.91345C63.9907 9.36117 64.073 8.80889 64.1279 8.28422C64.1553 8.17376 64.1553 8.0633 64.1279 7.95285C64.7039 7.78716 65.2798 7.56625 65.801 7.26249C66.377 6.98635 66.5141 6.43407 66.4318 6.04747C66.377 5.82656 66.2124 5.30189 65.5267 5.19143C65.4718 5.16382 65.3073 5.1362 65.2524 5.10859C64.7313 5.02575 64.2101 4.97052 63.6341 4.88768C63.5793 4.77722 63.5519 4.69438 63.497 4.61153C63.4696 4.55631 63.4147 4.44585 63.4147 4.41824C63.2227 3.42413 63.0307 2.45763 62.6741 1.46352C62.2627 0.38657 61.4124 -0.138099 60.2604 -2.84612e-05C59.7119 0.0551998 59.1907 0.248499 58.697 0.552254C58.0113 0.966467 57.737 0.85601 57.4902 0.690325C57.4079 0.635097 57.2433 0.552254 57.161 0.52464C56.969 0.441798 56.3656 0.248499 55.7622 0.52464C55.1862 0.800782 54.9667 1.40829 54.9119 1.60159C54.3907 3.06514 54.3907 4.52869 54.5004 5.74371C54.4182 5.88178 54.3633 6.01986 54.3359 6.18554C53.8147 6.46168 53.2662 6.71021 52.6079 6.93112C52.4159 6.98635 52.0593 7.12442 51.7576 7.51102C51.593 7.73193 51.5382 7.98046 51.5656 8.2566C51.593 8.53274 51.7576 8.75366 51.977 8.89173C52.6902 9.36117 53.4582 9.47163 54.1165 9.58208C54.1439 9.58208 54.1439 9.58208 54.1439 9.58208C54.1987 9.80299 54.281 10.0239 54.3359 10.2172C54.3907 10.3553 54.4456 10.521 54.5004 10.7143C54.6102 11.1285 54.8022 11.4322 55.0764 11.6255V11.6808C55.1587 12.233 55.241 12.8682 55.5976 13.4481L51.8399 16.5961C51.6205 16.7894 51.4833 17.1207 51.5382 17.4245C51.5656 17.7283 51.7576 18.0044 52.0319 18.1425L52.361 18.3358C52.745 18.5567 52.8547 18.6948 52.8822 18.8881C52.9645 19.247 53.0742 19.606 53.1839 19.9374L53.2113 19.9926C53.2113 19.9926 52.3885 21.8704 51.977 23.7205C50.9896 27.9179 49.9473 34.2415 50.3587 33.8549V33.8825C50.3313 34.1034 50.2765 35.5946 50.1119 41.3107C49.865 49.7331 49.5085 62.4632 49.2342 65.4455C49.2067 65.7216 49.289 65.9702 49.481 66.1635C49.673 66.3568 49.9199 66.4672 50.1667 66.4672H55.2684C55.4604 66.4672 55.625 66.412 55.7622 66.3292C55.7622 66.3568 55.7622 66.3844 55.7622 66.4396C55.7347 69.3667 57.1884 75.3866 58.889 79.3078C58.9713 79.5011 59.1084 79.6668 59.3004 79.7496C59.2456 80.0258 59.1907 80.2743 59.1359 80.5504C58.8067 81.9864 58.4776 83.4775 58.2307 84.9963C58.1759 85.3553 58.313 85.7143 58.6147 85.9352C58.7519 86.0457 58.9164 86.1009 59.1084 86.1009C58.9713 86.4875 58.9713 86.9569 59.1359 87.5368C59.1633 87.6197 59.1907 87.7025 59.1907 87.7854C59.2182 87.8682 59.2182 87.951 59.2456 88.0339C59.1907 88.1996 59.1633 88.3929 59.1907 88.5586C58.8342 88.6414 58.5324 88.7795 58.1759 88.9175C57.1884 89.3317 56.1462 89.6355 55.0764 89.8564C54.5553 89.9669 53.5679 90.1602 53.1565 91.0714C52.937 91.5685 52.9919 92.0379 53.0193 92.3417C53.0467 92.4798 53.0742 92.7835 53.2936 93.032C53.5679 93.3634 53.9519 93.4186 54.089 93.4463C56.7496 93.8605 59.4924 94.0261 62.1804 93.9709C62.537 93.9709 62.9759 93.9433 63.4421 93.75C63.5519 93.7224 63.6341 93.6672 63.7164 93.6119C63.7987 93.6948 63.9084 93.7776 64.0456 93.8605C64.265 93.9709 64.5119 93.9985 64.6764 93.9985C64.7587 93.9985 64.8136 93.9985 64.8684 93.9985L67.145 93.8328C67.5838 93.8052 67.9404 93.4739 67.9953 93.0597C68.1324 92.2865 68.0227 91.6513 67.8856 90.961C67.5838 89.5803 67.4467 88.2548 67.4467 86.9845V86.6532C67.4193 86.018 67.4193 85.4934 67.5838 84.9963C67.8033 84.3336 67.913 83.6432 67.9404 82.7872C67.9678 81.1303 67.8307 79.4735 67.6936 77.8719L67.6387 77.2091C67.4193 74.7239 67.2273 72.1281 66.761 69.5876C66.761 69.5324 66.7336 69.4772 66.7336 69.4219C67.529 69.8085 68.3244 70.1675 69.1747 70.4713C69.3941 70.5541 69.4216 70.5817 69.4764 70.775C70.4913 74.0059 71.9724 75.9941 73.865 76.7121C74.4684 76.933 75.0993 77.0158 75.7027 77.0711C77.3758 77.2091 79.5701 77.3196 81.7095 76.7397C83.7941 76.1598 85.1655 75.0552 85.9061 73.2603C93.2295 74.641 124.937 78.1204 130.889 78.7003C130.999 78.866 131.108 79.0317 131.245 79.225C132.754 81.4893 135.031 84.8859 141.559 85.3553C148.004 85.7971 151.625 84.0574 153.188 79.722C158.729 80.4676 166.628 79.8877 172.47 79.4735C173.485 79.3906 174.473 79.3354 175.35 79.2802C180.672 78.9212 188.598 77.8166 194.962 75.7456C196.196 75.3314 197.019 74.6686 197.348 73.7574C197.54 73.1775 197.65 72.2938 197.019 71.2169Z" fill="white"/>
<path id="Vector_8" d="M142.409 54.0408C145.536 53.7646 148.882 54.1512 153.161 55.311C153.819 55.4767 154.45 55.7805 155.136 55.3387C155.437 55.173 155.876 55.2834 156.233 55.3663C156.535 55.4491 156.809 55.5043 157.111 55.5596C156.315 54.9797 155.437 54.5931 154.532 54.2341C149.65 52.3011 144.521 51.5003 139.337 51.1413C133.988 50.7823 128.64 50.589 123.264 50.3405C121.207 50.23 119.122 50.1748 117.01 50.0644C117.12 49.6501 116.708 49.4016 116.736 49.0426C117.284 48.7113 117.805 49.015 118.327 49.015C124.059 49.2635 129.792 49.5673 135.497 50.0367C139.639 50.3957 143.78 50.6719 147.84 51.5279C152.173 52.4392 156.48 53.4609 160.018 56.4708C162.377 54.5102 165.12 54.5655 167.945 55.0625C162.706 52.0802 156.891 51.0861 151.076 50.092C151.296 50.0644 151.515 50.0367 151.735 50.0644C154.834 50.5062 157.933 51.0032 161.005 51.6936C164.736 52.5496 168.411 53.599 171.894 55.2834C172.333 55.5043 172.58 55.7529 172.662 56.2499C172.992 58.0172 173.43 59.7845 173.787 61.5795C174.116 63.3191 174.637 65.0036 174.528 66.7985C174.473 67.7098 175.131 68.2621 176.146 68.4001C176.886 68.483 177.627 68.4002 178.368 68.3725C180.397 68.2897 180.233 68.2897 180.178 66.5776C180.178 66.55 180.205 66.55 180.26 66.4672C184.045 66.191 187.885 66.0253 191.725 65.5283C191.04 66.7157 191.012 67.0747 191.369 68.5106C192.137 68.1516 192.905 68.0688 193.728 68.8144C193.206 67.3784 193.014 66.1082 193.782 64.8655C193.097 64.4237 193.152 63.7886 193.179 63.0706C193.316 60.1435 193.124 57.244 191.835 54.5378C191.588 54.0132 191.232 53.737 190.71 53.599C189.613 53.3228 188.516 53.2952 187.392 53.2952C186.404 53.2952 185.417 53.2952 184.512 53.2952C183.552 51.0032 181.33 50.7271 179.437 49.8987C183.414 50.4233 187.364 51.0861 191.122 52.5772C190.656 51.8593 190.573 51.7764 189.915 51.5003C186.596 50.1196 183.113 49.4845 179.602 48.8493C174.939 48.0209 170.221 47.441 165.504 46.944C163.501 46.723 161.472 46.3641 159.469 46.3917C154.176 46.5021 148.909 46.7783 143.643 47.2201C142.381 47.3306 141.092 47.3582 139.748 47.6895C143.369 47.6343 146.88 47.5239 150.418 47.5239C157.824 47.5239 165.202 47.6619 172.47 49.1255C175.488 49.733 178.477 50.2853 181.33 51.4727C181.549 51.5831 181.851 51.6107 182.125 52.0526C176.612 52.163 171.291 51.6384 165.942 51.1965C165.97 51.6384 166.354 51.8593 166.409 52.2735C156.452 49.4845 146.276 48.4903 135.908 47.8828C137.444 47.1373 138.98 47.2201 140.434 46.944C139.885 46.9163 139.337 46.8887 138.816 46.9163C135.332 46.944 131.849 47.0544 128.365 46.7783C127.351 46.6954 126.5 46.3917 125.705 45.6737C122.441 42.7742 119.122 39.93 115.831 37.0857C115.639 36.92 115.392 36.7819 115.255 36.423C116.324 36.6439 117.339 36.7267 118.354 36.6163C119.04 36.5334 119.725 36.5058 120.411 36.4782C124.69 36.2297 128.996 36.0088 133.495 36.1192C133.111 36.0088 132.919 35.9259 132.727 35.8983C129.984 35.5393 127.213 35.346 124.443 35.5117C123.428 35.5669 122.441 35.7326 121.426 35.6222C119.012 35.4012 116.599 35.2356 114.185 35.1527C113.965 35.1527 113.691 35.0975 113.527 35.2079C112.786 35.705 112.045 35.4565 111.305 35.2908C110.592 35.1251 109.906 34.9042 109.138 34.9318C103.378 35.2079 97.6455 35.7878 91.9952 36.8096C90.7884 37.0305 89.5541 37.1133 88.4021 37.6656C85.8238 38.9358 83.3278 40.3166 80.8593 41.7801C80.7495 41.863 80.5027 41.863 80.5575 42.1115C81.4353 42.1943 82.3678 41.9458 83.3004 42.3876C81.9564 43.9064 80.5575 45.2043 79.1038 46.4745C80.009 46.2536 80.9141 46.0327 81.8193 45.8118C82.9987 44.0169 84.3152 42.3876 85.9335 41.0069C87.4695 39.6814 89.1152 38.4664 91.0627 37.9694C97.4535 36.3953 103.927 35.9259 110.482 36.92C110.921 36.9752 111.36 37.0305 111.744 37.3066C113.828 38.8254 115.885 40.3718 117.778 42.1391C118.985 43.2713 120.109 44.4311 121.015 45.8118C121.316 46.2812 121.645 46.7507 121.81 47.3582C120.247 47.3306 118.765 47.3306 117.284 47.1925C117.147 46.7783 116.763 46.5574 116.845 46.0879C117.065 44.7624 115.995 43.4093 114.651 43.2713C113.581 43.1608 112.512 43.2437 111.469 43.3817C110.564 43.4922 109.687 43.7407 108.919 44.293C108.452 44.652 108.013 45.0386 107.876 45.7289C109.33 45.6185 110.729 45.508 112.155 45.5632C113.17 45.5909 114.185 45.6461 115.145 46.0051C115.748 46.226 115.858 46.723 115.776 47.2753C115.693 47.8276 115.309 48.2142 114.761 48.159C112.813 48.0209 110.866 47.9381 108.946 47.4962C108.507 47.3858 108.151 47.1373 107.684 47.1373C106.807 47.1649 105.901 47.1096 105.024 47.082C97.7552 46.9716 90.4867 46.8611 83.2455 46.5574C81.8193 46.5021 80.5027 46.8611 78.9667 47.082C79.7895 47.3582 80.5027 47.2753 81.2433 47.7448C79.8444 48.0209 78.5827 48.1866 77.2935 48.0209C75.6753 47.8276 74.0844 47.7171 72.4936 47.9657C71.5884 48.1037 70.6833 48.2142 69.833 48.6284C72.4387 48.5732 75.0718 48.3799 77.6776 49.1807C76.6353 51.1137 78.1164 52.5772 78.5004 54.3169C77.4033 53.6542 76.3884 53.0743 75.209 52.7705C73.4261 52.3563 71.945 52.7429 70.793 54.2341C69.5861 55.8357 69.0376 57.5754 68.9279 59.4532C68.9827 59.8674 69.0101 60.2816 69.065 60.6958C69.0924 60.4473 69.1473 60.1987 69.2021 59.9778C69.6684 57.603 70.6833 55.6148 73.0147 54.5655C73.5084 54.3445 74.0021 54.3169 74.5233 54.4274C76.4981 54.8692 77.9244 56.0566 79.049 57.6859C80.1735 59.3151 80.8867 61.1376 81.4627 63.0154C81.5175 63.1535 81.4627 63.3744 81.7644 63.4296C81.929 59.177 80.1187 55.4491 78.7198 51.666C79.1313 51.1689 79.625 50.9204 80.201 50.7823C81.6547 50.4233 83.1084 50.5338 84.5347 50.8928C87.6341 51.6936 90.7609 51.9973 93.9427 51.6384C95.3964 51.4727 97.0969 51.8593 98.2215 50.3405C97.9198 53.7094 98.4958 56.9127 99.2364 60.1159C98.8798 57.1612 98.4684 54.2341 99.0992 51.2241C101.431 51.7212 103.707 51.9697 106.011 52.1354C110.29 52.4668 114.596 52.4392 118.903 52.4392C119.753 52.4392 120.493 52.2735 121.152 51.7212C121.316 51.5831 121.481 51.3898 121.783 51.4174C121.042 54.8416 122.249 60.8891 123.209 63.7057C123.154 63.3468 123.127 63.1535 123.099 62.9602C122.66 60.0331 122.276 57.106 122.441 54.1236C122.468 53.4885 122.523 52.8534 122.825 52.2183C123.401 52.3287 123.949 52.4668 124.525 52.5772C126.939 53.1019 129.353 53.5713 131.739 54.2341C132.836 54.5378 133.851 54.6207 134.921 54.3722C134.976 54.3445 135.058 54.3998 135.25 54.4274C130.395 57.4649 128.722 61.828 129.435 67.268C129.655 65.3902 130.011 63.5677 130.724 61.8004C132.013 58.5971 134.263 56.4708 137.581 55.5043C137.856 55.4215 138.157 55.311 138.459 55.3387C141.696 55.5872 144.548 56.747 146.825 59.1494C148.333 60.751 149.376 62.6288 150.171 64.6446C150.473 65.4178 150.72 66.2186 150.994 66.9918C150.528 61.0824 148.69 56.0842 142.409 54.0408ZM175.433 55.4491L177.353 64.4237L176.173 55.2834C176.585 55.173 176.996 55.0901 177.408 55.0073L179.355 64.4237L178.148 54.8692C178.56 54.7864 178.944 54.7311 179.355 54.6483L181.357 64.4237L180.15 54.5378C180.562 54.4826 180.973 54.4274 181.412 54.3998L183.36 64.4237L182.18 54.3169C182.592 54.2893 183.003 54.2617 183.387 54.2341L185.362 64.4237L184.182 54.2065C184.594 54.2065 184.978 54.1789 185.389 54.1789H185.362L187.364 64.3961L186.157 54.1789C186.569 54.1789 186.98 54.2065 187.364 54.2341L189.339 64.0923L188.16 54.3169C188.571 54.3445 188.982 54.3998 189.394 54.455L191.341 64.12L190.189 54.5655C190.464 54.5931 190.738 54.6483 190.985 54.6759C192.246 57.8239 192.768 61.0548 192.137 64.3961C188.818 65.3902 179.465 66.2186 175.817 65.832C174.692 62.6564 173.869 59.4532 173.458 55.9738C174.116 55.8081 174.774 55.6424 175.433 55.4491ZM87.689 48.7665C91.5015 48.656 95.2866 48.6836 99.0992 48.7389C99.2638 48.518 99.4558 48.297 99.6204 48.0761C99.9495 48.2418 99.7849 48.6284 100.032 48.9322H114.733C115.035 49.3464 115.227 49.6225 115.529 50.0367C106.176 49.5949 96.9049 49.8158 87.689 48.7665Z" fill="white"/>
<path id="Vector_9" d="M192.987 73.0393C190.793 73.5916 188.571 73.8125 186.349 74.1163C180.315 74.9999 174.253 75.6351 168.137 75.7731C165.202 75.8284 162.267 75.7731 159.332 75.497C158.729 75.4418 158.372 74.8895 158.427 74.1991C158.482 73.5916 158.811 73.2879 159.442 73.2603C160.813 73.2603 162.157 73.2603 163.529 73.2603C166.326 73.2603 169.097 73.2603 171.757 73.2603C173.897 70.6369 176.886 70.6369 179.657 70.1399C179.52 69.6428 179.19 69.6704 178.861 69.7256C177.819 69.8637 176.749 69.9466 175.68 69.7256C174.72 69.5323 174.006 69.0629 173.705 68.0412C173.568 67.5165 173.266 67.0471 172.964 66.5776C172.498 65.8873 171.922 65.4178 171.044 65.3626C170.276 65.3074 169.536 65.1141 168.768 65.0036C165.805 64.617 162.843 64.1752 159.853 64.479C159.195 64.5342 158.537 64.6446 157.851 65.0312C158.976 65.3902 160.073 65.4178 161.142 65.5283C162.185 65.6387 163.254 65.694 164.297 65.7492C163.885 66.0253 163.474 65.9425 163.062 65.9977C160.073 66.2463 158.208 67.5717 157.385 70.0846C157.001 71.2444 156.562 71.4653 155.465 70.9683C154.834 70.6921 154.258 70.3055 153.654 69.9742C153.106 70.6093 152.557 71.2168 151.954 71.8519C152.256 73.6469 152.31 75.4418 152.502 77.1815C152.914 77.2367 153.216 77.2919 153.545 77.3195C158.482 77.8718 163.446 78.0099 168.411 77.7614C175.597 77.43 182.701 76.4083 189.75 74.9999C191.314 74.6962 192.905 74.3372 194.441 73.9782C195.702 73.6745 196.032 72.9565 195.373 71.9348C194.688 72.5699 193.837 72.8184 192.987 73.0393ZM159.771 68.5935C160.1 67.9307 160.676 67.6546 161.362 67.5165C163.337 67.1023 165.339 67.0747 167.341 67.1299C168.438 67.1575 169.508 67.2404 170.715 67.2956C170.166 68.3449 170.633 69.1457 170.989 70.0018C170.276 70.775 169.426 71.4101 168.548 71.99C168.63 72.2938 168.987 72.2661 169.124 72.5975C165.723 72.5699 162.322 72.6527 158.893 72.4871C159.003 71.1063 159.195 69.8085 159.771 68.5935Z" fill="white"/>
<path id="Vector_10" d="M129.6 73.9783C123.346 73.3984 117.12 72.7356 110.893 72.0453C104.475 71.3273 98.0295 70.5817 91.6661 69.4772C89.9381 69.1734 88.2101 68.8697 86.5369 68.3174C86.2627 67.489 85.7689 66.8262 85.1381 66.0806C99.2638 67.7099 113.28 69.2839 127.268 71.0512C127.46 70.775 127.652 70.5541 127.68 70.2504C112.512 68.1793 97.3438 66.053 81.929 64.9761C82.3404 66.412 82.3678 67.7651 82.8341 69.063C83.0535 69.6153 83.3827 70.1123 83.7941 70.5541C84.1507 70.9131 84.5895 71.1064 85.1107 71.1616C91.8581 71.7692 98.5781 72.5147 105.298 73.3155C112.813 74.1992 120.301 75.1657 127.789 76.077C128.749 76.1874 129.709 76.2979 130.834 76.4359C130.34 75.6351 130.203 74.8343 129.901 74.0887C129.819 74.0059 129.709 73.9783 129.6 73.9783Z" fill="white"/>
<path id="Vector_11" d="M163.995 55.1455C162.651 55.2284 161.389 55.5321 160.786 56.8852C160.182 58.1831 160.649 59.3705 161.472 60.4198C162.651 61.8834 164.214 62.6566 166.107 62.7118C167.424 62.7394 168.63 62.408 169.289 61.1102C169.947 59.8123 169.536 58.6249 168.713 57.5756C167.506 56.0015 165.888 55.2836 163.995 55.1455ZM167.89 61.4968C167.177 61.9938 166.491 61.7729 165.723 61.5244V60.3094C165.805 60.3922 165.888 60.4474 165.942 60.5579C166.107 60.834 166.162 61.1378 166.409 61.3587C166.765 61.3035 167.067 61.193 167.314 61.0549C167.341 61.0273 167.369 61.0273 167.396 60.9997C167.533 60.9169 167.643 60.834 167.725 60.7512C168.054 60.3922 168.164 59.9228 168.054 59.3705C167.945 58.901 167.698 58.3764 167.259 57.7689C166.957 57.7412 166.71 57.9622 166.381 57.9898C165.284 57.2166 164.187 56.3605 162.706 57.1337C162.788 57.2994 162.953 57.189 163.062 57.327C162.898 58.0726 163.117 58.7906 163.392 59.5085C163.172 59.6466 163.09 59.3429 162.843 59.4257C162.98 60.6131 163.94 61.0825 164.818 61.6901C163.145 61.5796 161.417 59.5914 161.554 58.0174C161.636 57.1061 162.322 56.3605 163.282 56.112C165.229 55.5873 167.725 56.7747 168.548 58.6249C169.069 59.7295 168.795 60.834 167.89 61.4968Z" fill="white"/>
<path id="Vector_12" d="M141.805 75.0275C143.232 74.5857 144.192 72.6803 144.027 70.7473C143.835 68.5658 142.601 66.8813 141.065 66.7433C139.282 66.5776 137.856 68.3725 137.883 70.9958C137.911 71.9899 138.24 73.1221 138.98 74.0058C139.748 74.9999 140.708 75.3865 141.805 75.0275ZM139.2 68.6486C139.474 67.5165 140.187 66.9642 141.12 67.1299C142.052 67.2955 142.765 67.7926 143.149 68.8695C143.424 69.5875 143.314 69.8913 142.683 70.1122C141.86 70.4159 141.01 70.6921 140.16 71.1063C139.172 70.5816 138.898 69.8637 139.2 68.6486ZM138.651 71.0235C138.679 72.6803 139.255 73.7849 140.516 74.1438C141.504 74.42 142.436 73.8125 143.067 72.5146C142.848 74.3371 141.97 74.9447 140.297 74.4752C138.98 74.1438 138.212 72.6803 138.651 71.0235Z" fill="white"/>
<path id="Vector_13" d="M143.972 75.6075C143.204 76.8777 142.135 77.3748 140.9 76.9882C139.008 76.3807 137.664 74.9724 137.197 72.5976C137.115 72.1833 137.06 71.7691 136.978 71.1616C136.786 71.8244 136.429 72.0453 136.045 72.211C136.155 72.9013 136.347 73.4812 136.567 74.0611C136.951 75.0828 137.499 75.9941 138.212 76.8777C136.704 76.2426 135.579 74.282 135.031 71.6311C134.866 71.9624 134.921 72.3214 134.976 72.708C135.168 74.4201 136.018 75.7456 136.896 77.0434C137.664 78.148 138.651 78.6174 139.776 78.7003C143.341 78.9488 145.179 75.6351 145.234 71.7139C145.124 72.1833 145.069 72.4595 145.015 72.7356C144.768 73.7297 144.493 74.7238 143.972 75.6075Z" fill="white"/>
<path id="Vector_14" d="M142.354 46.6955C143.067 46.6679 143.78 46.6402 144.493 46.585C139.776 42.719 134.619 39.6263 129.051 37.2791C133.714 40.0957 138.541 42.6638 142.354 46.6955Z" fill="white"/>
<path id="Vector_15" d="M76.6078 63.6506C76.0044 62.8774 75.3187 62.7945 74.7152 63.4297C73.7827 64.4514 73.6455 66.909 74.4958 68.1241C74.4684 67.627 74.1392 67.1576 74.2764 66.6329C74.441 66.771 74.441 66.9919 74.4958 67.1576C74.633 67.7375 74.8524 68.2898 75.4558 68.4278C76.1141 68.5935 76.4981 68.1517 76.7998 67.5994C76.7724 68.0965 76.6901 68.5659 76.1415 68.7592C75.6204 68.9249 75.1815 68.7868 74.825 68.3726C74.7427 68.2621 74.6878 68.1241 74.5232 68.1241V68.1517L74.4958 68.1241C74.633 68.704 75.017 69.0629 75.593 69.201C76.1141 69.3115 76.4981 69.0077 76.7724 68.6211C77.6227 67.3509 77.5678 64.8656 76.6078 63.6506C76.5804 63.6506 76.5804 63.6506 76.5804 63.6506C76.553 64.0096 76.8272 64.2857 76.9095 64.5895C77.0192 65.0313 76.9644 65.3627 76.4981 65.5559C76.0592 65.7216 75.6478 65.9702 75.2364 66.1635C74.4958 65.6388 74.441 63.9819 75.1267 63.4297C75.401 63.2087 75.6752 63.2364 75.9495 63.3468C76.169 63.4297 76.3335 63.6506 76.5804 63.6506V63.623L76.6078 63.6506Z" fill="white"/>
<path id="Vector_16" d="M155.958 56.0015C155.081 55.9739 154.45 56.1672 154.093 56.8852C153.819 57.4651 154.011 58.2383 154.642 58.8458C155.3 59.5085 156.123 59.8399 157.056 59.7571C157.686 59.7295 158.235 59.4809 158.509 58.8734C158.784 58.2659 158.592 57.686 158.208 57.189C157.604 56.4434 156.809 56.0568 155.958 56.0015ZM157.11 59.1496C156.836 59.2048 156.48 59.2324 156.48 58.5697C156.781 58.9839 157.028 58.9839 157.275 58.7353C157.714 58.2659 157.357 57.8793 157.138 57.4375C156.48 57.6584 156.013 56.8024 155.328 57.1337C155.053 57.5755 155.547 58.0174 155.273 58.404C155.41 58.763 155.739 58.8182 155.876 59.0943C155.821 59.0943 155.767 59.0943 155.739 59.0943C154.889 58.6801 154.477 57.9898 154.669 57.3546C154.834 56.8576 155.41 56.5814 156.096 56.6643C157.001 56.7747 157.824 57.5203 157.796 58.2383C157.824 58.7077 157.577 59.0391 157.11 59.1496Z" fill="white"/>
<path id="Vector_17" d="M77.6501 68.5935C77.5404 69.0629 77.4033 69.5047 77.129 69.9189C76.6078 70.7474 75.9496 70.8854 75.1816 70.3332C74.5507 69.8913 74.1393 69.2838 73.865 68.5659C73.6181 67.9031 73.5358 67.2404 73.4261 66.5776C73.2341 66.7433 73.0696 66.8814 72.8776 67.0471C73.0421 68.2345 73.4261 69.339 73.9473 70.3884C73.0421 69.5047 72.7404 68.8144 72.3016 66.7709C72.1918 68.2345 72.7404 69.5323 73.481 70.775C74.2216 72.0728 75.785 72.1833 76.7724 71.0511C77.513 70.1951 78.0616 68.4002 77.9518 67.2404C77.8696 67.6822 77.7598 68.124 77.6501 68.5935Z" fill="white"/>
</g>
<g id="Group_2">
<path id="Vector_18" d="M9.81941 112.97H7.65256V109.104H9.81941V101.593H23.9177V105.459H14.016V109.076H23.5062V112.942H14.016V118.492H9.81941C9.81941 118.52 9.81941 112.97 9.81941 112.97Z" fill="white"/>
<path id="Vector_19" d="M26.8525 101.593H31.0491V114.654H41.1153V118.52H26.8525V101.593Z" fill="white"/>
<path id="Vector_20" d="M42.2399 110.015C42.2399 108.662 42.4868 107.447 42.9256 106.37C43.3919 105.293 44.0502 104.354 44.873 103.553C45.7233 102.78 46.7382 102.172 47.9176 101.731C49.097 101.289 50.4136 101.095 51.8673 101.095C53.321 101.095 54.6376 101.316 55.817 101.731C56.9964 102.145 58.0113 102.752 58.8616 103.553C59.7119 104.326 60.3427 105.265 60.809 106.37C61.2753 107.447 61.4947 108.662 61.4947 110.015C61.4947 111.368 61.2479 112.611 60.809 113.715C60.3701 114.82 59.6844 115.759 58.8616 116.559C58.0113 117.36 56.9964 117.968 55.817 118.382C54.6376 118.796 53.321 119.017 51.8673 119.017C50.4136 119.017 49.1245 118.796 47.9176 118.382C46.7382 117.968 45.7233 117.333 44.873 116.559C44.0228 115.759 43.3919 114.82 42.9256 113.715C42.4593 112.611 42.2399 111.368 42.2399 110.015ZM46.6833 110.015C46.6833 110.733 46.793 111.396 47.0673 112.003C47.3142 112.611 47.6707 113.135 48.137 113.549C48.6033 113.964 49.1519 114.323 49.8102 114.544C50.4685 114.792 51.1816 114.903 51.9496 114.903C52.7176 114.903 53.4307 114.792 54.0616 114.544C54.6924 114.295 55.241 113.991 55.6799 113.577C56.1187 113.163 56.4753 112.638 56.7222 112.031C56.969 111.423 57.1061 110.76 57.1061 110.015C57.1061 109.324 56.9964 108.689 56.7222 108.082C56.4753 107.502 56.1187 106.977 55.6799 106.563C55.241 106.149 54.6924 105.817 54.0616 105.569C53.4307 105.32 52.7176 105.21 51.9496 105.21C51.1816 105.21 50.441 105.32 49.8102 105.569C49.1519 105.817 48.6033 106.121 48.137 106.535C47.6707 106.95 47.3416 107.447 47.0673 108.054C46.8205 108.634 46.6833 109.297 46.6833 110.015Z" fill="white"/>
<path id="Vector_21" d="M69.3393 112.611L61.1107 101.565H66.4318L71.4238 108.551L76.4433 101.565H81.7644L73.5358 112.611V118.52H69.3393V112.611Z" fill="white"/>
<path id="Vector_22" d="M83.5198 101.593H91.3644C92.8181 101.593 94.1072 101.786 95.3141 102.2C96.4935 102.614 97.5083 103.167 98.3586 103.912C99.2089 104.658 99.8398 105.541 100.306 106.591C100.772 107.64 100.992 108.772 100.992 110.042C100.992 111.313 100.745 112.473 100.306 113.522C99.8398 114.571 99.1815 115.455 98.3586 116.2C97.5083 116.946 96.4935 117.526 95.3141 117.912C94.1346 118.327 92.8181 118.52 91.3644 118.52H83.5198V101.593ZM91.4466 114.654C92.2146 114.654 92.9278 114.544 93.5586 114.323C94.1895 114.102 94.7381 113.798 95.1769 113.384C95.6158 112.97 95.9723 112.5 96.2192 111.92C96.4661 111.34 96.6032 110.705 96.6032 110.015C96.6032 109.324 96.4661 108.745 96.2192 108.165C95.9723 107.612 95.6158 107.115 95.1769 106.701C94.7381 106.287 94.1895 105.983 93.5586 105.762C92.9278 105.541 92.2146 105.431 91.4466 105.431H87.7438V114.626L91.4466 114.654Z" fill="white"/>
<path id="Vector_23" d="M118.601 105.459C117.641 105.459 116.9 105.652 116.352 106.039C115.803 106.425 115.337 106.922 114.98 107.557C114.624 108.192 114.349 108.91 114.157 109.711C113.965 110.512 113.746 111.34 113.499 112.169C113.252 112.997 112.978 113.826 112.649 114.627C112.292 115.427 111.826 116.145 111.195 116.78C110.564 117.416 109.741 117.913 108.727 118.299C107.712 118.686 106.45 118.879 104.914 118.879C104.448 118.879 103.981 118.851 103.515 118.796C103.049 118.741 102.583 118.658 102.116 118.52V114.35C102.583 114.488 103.076 114.571 103.57 114.599C104.064 114.627 104.557 114.654 105.024 114.654C105.984 114.654 106.752 114.461 107.3 114.074C107.849 113.688 108.315 113.191 108.644 112.555C108.973 111.92 109.248 111.202 109.44 110.402C109.632 109.601 109.851 108.772 110.098 107.944C110.345 107.088 110.619 106.287 110.976 105.486C111.332 104.685 111.826 103.967 112.457 103.332C113.088 102.697 113.911 102.2 114.898 101.814C115.885 101.427 117.175 101.234 118.711 101.234C119.204 101.234 119.671 101.261 120.137 101.316C120.603 101.372 121.097 101.455 121.563 101.593V105.79C121.069 105.652 120.576 105.569 120.082 105.541C119.588 105.486 119.095 105.459 118.601 105.459Z" fill="white"/>
<path id="Vector_24" d="M130.669 101.593H134.866V114.654H144.932V118.52H130.669V101.593Z" fill="white"/>
<path id="Vector_25" d="M166.683 118.52H161.718L160.457 116.2H152.283L151.049 118.52H146.084L156.233 101.095H156.589L166.683 118.52ZM158.674 112.914L156.37 108.386L154.011 112.914H158.674Z" fill="white"/>
<path id="Vector_26" d="M168.438 101.095H168.795L181.056 110.484V101.593H185.252V119.017H184.896L172.635 109.628V118.52H168.438V101.095Z" fill="white"/>
<path id="Vector_27" d="M189.997 112.831H187.83V109.324H189.997V101.593H204.095V105.459H194.194V109.324H203.684V112.831H194.194V114.654H204.26V118.52H189.997V112.831Z" fill="white"/>
<path id="Vector_28" d="M222.527 105.459C221.567 105.459 220.827 105.652 220.278 106.039C219.73 106.425 219.263 106.922 218.907 107.557C218.55 108.192 218.276 108.91 218.084 109.711C217.892 110.512 217.673 111.34 217.426 112.169C217.179 112.997 216.905 113.826 216.548 114.627C216.191 115.427 215.725 116.145 215.094 116.78C214.463 117.416 213.641 117.913 212.626 118.299C211.611 118.686 210.349 118.879 208.813 118.879C208.347 118.879 207.881 118.851 207.414 118.796C206.948 118.741 206.482 118.658 206.016 118.52V114.35C206.482 114.488 206.976 114.571 207.469 114.599C207.963 114.627 208.457 114.654 208.923 114.654C209.883 114.654 210.651 114.461 211.199 114.074C211.748 113.688 212.214 113.191 212.544 112.555C212.873 111.92 213.147 111.202 213.339 110.402C213.531 109.601 213.75 108.772 213.997 107.944C214.217 107.088 214.518 106.287 214.875 105.486C215.231 104.685 215.725 103.967 216.356 103.332C216.987 102.697 217.81 102.2 218.797 101.814C219.785 101.427 221.074 101.234 222.61 101.234C223.103 101.234 223.57 101.261 224.036 101.316C224.502 101.372 224.996 101.455 225.462 101.593V105.79C224.969 105.652 224.475 105.569 223.981 105.541C223.515 105.486 223.021 105.459 222.527 105.459Z" fill="white"/>
</g>
<g id="Group_3">
<path id="Vector_29" d="M30.3908 127.964C31.4879 127.964 32.0639 128.627 32.0639 129.786V130.007H30.9942V129.704C30.9942 129.179 30.7748 128.986 30.4182 128.986C30.0616 128.986 29.8422 129.179 29.8422 129.704C29.8422 131.195 32.0639 131.498 32.0639 133.57C32.0639 134.729 31.4879 135.392 30.3633 135.392C29.2388 135.392 28.6628 134.729 28.6628 133.57V133.128H29.7325V133.652C29.7325 134.177 29.9519 134.37 30.3359 134.37C30.7199 134.37 30.9393 134.177 30.9393 133.652C30.9393 132.161 28.7176 131.857 28.7176 129.786C28.7176 128.627 29.2936 127.964 30.3908 127.964Z" fill="white"/>
<path id="Vector_30" d="M36.9736 131.112H38.5371V132.161H36.9736V134.288H38.9485V135.337H35.8491V128.047H38.9485V129.096H36.9736V131.112Z" fill="white"/>
<path id="Vector_31" d="M46.0525 132.603V133.57C46.0525 134.729 45.4765 135.392 44.3519 135.392C43.2273 135.392 42.6513 134.729 42.6513 133.57V129.786C42.6513 128.627 43.2273 127.964 44.3519 127.964C45.4765 127.964 46.0525 128.627 46.0525 129.786V130.504H44.9828V129.731C44.9828 129.207 44.7633 129.013 44.4068 129.013C44.0502 129.013 43.8308 129.207 43.8308 129.731V133.652C43.8308 134.177 44.0502 134.37 44.4068 134.37C44.7633 134.37 44.9828 134.177 44.9828 133.652V132.603H46.0525Z" fill="white"/>
<path id="Vector_32" d="M50.9347 128.047V133.653C50.9347 134.177 51.1542 134.371 51.5107 134.371C51.8673 134.371 52.0867 134.177 52.0867 133.653V128.019H53.1564V133.57C53.1564 134.73 52.5804 135.392 51.4559 135.392C50.3313 135.392 49.7553 134.73 49.7553 133.57V128.019H50.9347V128.047Z" fill="white"/>
<path id="Vector_33" d="M59.4376 135.337C59.3827 135.144 59.3279 135.033 59.3279 134.453V133.321C59.3279 132.631 59.1084 132.382 58.5873 132.382H58.2033V135.365H57.0513V128.074H58.7793C59.9587 128.074 60.4524 128.627 60.4524 129.759V130.339C60.4524 131.084 60.2056 131.581 59.7119 131.83C60.2879 132.079 60.4799 132.631 60.4799 133.376V134.509C60.4799 134.868 60.4799 135.116 60.5896 135.392L59.4376 135.337ZM58.2033 129.069V131.305H58.6422C59.0536 131.305 59.3279 131.112 59.3279 130.532V129.814C59.3279 129.289 59.1633 129.069 58.7519 129.069H58.2033Z" fill="white"/>
<path id="Vector_34" d="M65.4444 131.112H67.0078V132.161H65.4444V134.288H67.4193V135.337H64.3199V128.047H67.4193V129.096H65.4444V131.112Z" fill="white"/>
<path id="Vector_35" d="M77.6775 127.356H78.6101V136H77.6775V127.356Z" fill="white"/>
<path id="Vector_36" d="M91.2821 135.337C91.2272 135.144 91.1724 135.033 91.1724 134.453V133.321C91.1724 132.631 90.9529 132.382 90.4318 132.382H90.0478V135.365H88.9232V128.074H90.6512C91.8306 128.074 92.3244 128.627 92.3244 129.759V130.339C92.3244 131.084 92.0775 131.581 91.5838 131.83C92.1598 132.079 92.3518 132.631 92.3518 133.376V134.509C92.3518 134.868 92.3518 135.116 92.4889 135.392L91.2821 135.337ZM90.0478 129.069V131.305H90.4866C90.8981 131.305 91.1724 131.112 91.1724 130.532V129.814C91.1724 129.289 91.0078 129.069 90.5964 129.069H90.0478Z" fill="white"/>
<path id="Vector_37" d="M97.2889 131.112H98.8523V132.161H97.2889V134.288H99.2638V135.337H96.1643V128.047H99.2638V129.096H97.2889V131.112Z" fill="white"/>
<path id="Vector_38" d="M103.076 128.047H104.201V134.288H106.066V135.337H103.049L103.076 128.047Z" fill="white"/>
<path id="Vector_39" d="M109.687 128.047H110.811V135.337H109.687V128.047Z" fill="white"/>
<path id="Vector_40" d="M118.436 135.337H117.284L117.092 134.012H115.693L115.501 135.337H114.459L115.611 128.047H117.284L118.436 135.337ZM115.831 133.017H116.928L116.379 129.317L115.831 133.017Z" fill="white"/>
<path id="Vector_41" d="M125.458 129.704V129.952C125.458 130.698 125.239 131.195 124.717 131.416C125.321 131.664 125.568 132.217 125.568 132.99V133.57C125.568 134.702 124.992 135.309 123.84 135.309H122.057V128.019H123.785C124.937 128.047 125.458 128.599 125.458 129.704ZM123.181 129.069V131.002H123.62C124.032 131.002 124.306 130.808 124.306 130.228V129.814C124.306 129.29 124.141 129.069 123.73 129.069H123.181ZM123.181 132.051V134.288H123.84C124.224 134.288 124.416 134.122 124.416 133.57V132.935C124.416 132.244 124.196 132.051 123.675 132.051H123.181Z" fill="white"/>
<path id="Vector_42" d="M129.353 128.047H130.477V134.288H132.343V135.337H129.325L129.353 128.047Z" fill="white"/>
<path id="Vector_43" d="M137.088 131.112H138.651V132.161H137.088V134.288H139.063V135.337H135.963V128.047H139.063V129.096H137.088V131.112Z" fill="white"/>
<path id="Vector_44" d="M149.321 127.356H150.253V136H149.321V127.356Z" fill="white"/>
<path id="Vector_45" d="M163.858 132.603V133.57C163.858 134.729 163.282 135.392 162.157 135.392C161.033 135.392 160.457 134.729 160.457 133.57V129.786C160.457 128.627 161.033 127.964 162.157 127.964C163.282 127.964 163.858 128.627 163.858 129.786V130.504H162.788V129.731C162.788 129.207 162.569 129.013 162.185 129.013C161.801 129.013 161.581 129.207 161.581 129.731V133.652C161.581 134.177 161.801 134.37 162.185 134.37C162.569 134.37 162.788 134.177 162.788 133.652V132.603H163.858Z" fill="white"/>
<path id="Vector_46" d="M167.643 128.047H168.795V134.288H170.66V135.337H167.643V128.047Z" fill="white"/>
<path id="Vector_47" d="M177.929 135.337H176.777L176.585 134.012H175.186L174.994 135.337H173.952L175.104 128.047H176.777L177.929 135.337ZM175.323 133.017H176.42L175.872 129.317L175.323 133.017Z" fill="white"/>
<path id="Vector_48" d="M183.085 127.964C184.182 127.964 184.758 128.627 184.758 129.786V130.007H183.689V129.704C183.689 129.179 183.469 128.986 183.113 128.986C182.756 128.986 182.537 129.179 182.537 129.704C182.537 131.195 184.758 131.498 184.758 133.57C184.758 134.729 184.182 135.392 183.058 135.392C181.933 135.392 181.357 134.729 181.357 133.57V133.128H182.427V133.652C182.427 134.177 182.646 134.37 183.03 134.37C183.414 134.37 183.634 134.177 183.634 133.652C183.634 132.161 181.412 131.857 181.412 129.786C181.412 128.627 181.988 127.964 183.085 127.964Z" fill="white"/>
<path id="Vector_49" d="M190.052 127.964C191.149 127.964 191.725 128.627 191.725 129.786V130.007H190.656V129.704C190.656 129.179 190.436 128.986 190.08 128.986C189.723 128.986 189.504 129.179 189.504 129.704C189.504 131.195 191.725 131.498 191.725 133.57C191.725 134.729 191.149 135.392 190.025 135.392C188.9 135.392 188.324 134.729 188.324 133.57V133.128H189.394V133.652C189.394 134.177 189.613 134.37 189.997 134.37C190.381 134.37 190.601 134.177 190.601 133.652C190.601 132.161 188.379 131.857 188.379 129.786C188.379 128.627 188.955 127.964 190.052 127.964Z" fill="white"/>
<path id="Vector_50" d="M195.51 128.047H196.662V135.337H195.51V128.047Z" fill="white"/>
<path id="Vector_51" d="M203.876 132.603V133.57C203.876 134.729 203.3 135.392 202.175 135.392C201.051 135.392 200.475 134.729 200.475 133.57V129.786C200.475 128.627 201.051 127.964 202.175 127.964C203.3 127.964 203.876 128.627 203.876 129.786V130.504H202.806V129.731C202.806 129.207 202.587 129.013 202.203 129.013C201.819 129.013 201.6 129.207 201.6 129.731V133.652C201.6 134.177 201.819 134.37 202.203 134.37C202.587 134.37 202.806 134.177 202.806 133.652V132.603H203.876Z" fill="white"/>
</g>
<path id="Vector_52" d="M219.044 123.849H14.0983C6.30856 123.849 0 117.498 0 109.683C0 101.869 6.30856 95.4897 14.0983 95.4897H219.044C226.806 95.4897 233.142 101.841 233.142 109.683C233.142 117.526 226.834 123.849 219.044 123.849ZM14.0983 97.0914C7.2137 97.0914 1.59085 102.752 1.59085 109.683C1.59085 116.615 7.2137 122.275 14.0983 122.275H219.044C225.929 122.275 231.551 116.615 231.551 109.683C231.551 102.752 225.929 97.0914 219.044 97.0914H14.0983Z" fill="white"/>
</g>
<defs>
<clipPath id="clip0_82_1184">
<rect width="233.142" height="136" fill="white"/>
</clipPath>
</defs>
</svg>
